<svg width="19" height="18" viewBox="0 0 19 18" fill="none" xmlns="http://www.w3.org/2000/svg">
<g id="Group 514068" opacity="0.8">
<path id="Vector" d="M0.890625 7.8429C0.890625 6.10151 0.890625 4.36012 0.890625 2.61873C0.890625 1.22562 1.81937 0.296875 3.21248 0.296875C6.34698 0.296875 9.48148 0.296875 12.7321 0.296875C14.1252 0.296875 15.0539 1.22562 15.0539 2.61873C15.0539 4.7084 15.0539 6.79807 15.0539 8.88773C15.0539 10.2808 14.1252 11.2096 12.7321 11.2096C10.178 11.2096 7.74009 11.2096 5.18605 11.2096C4.95387 11.2096 4.83778 11.2096 4.72168 11.4418C3.79294 12.2544 2.8642 12.951 1.93546 13.7636C1.70327 13.9958 1.47109 14.1119 1.2389 13.9958C0.890625 13.6475 0.890625 13.4153 0.890625 13.1832C0.890625 11.3257 0.890625 9.58429 0.890625 7.8429ZM2.05155 12.1383C2.16764 12.1383 2.28374 12.0222 2.28374 12.0222C2.8642 11.4418 3.56076 10.9774 4.14122 10.3969C4.37341 10.1648 4.60559 10.0487 4.95387 10.0487C7.50791 10.0487 10.0619 10.0487 12.616 10.0487C13.5447 10.0487 13.893 9.58429 13.893 8.77164C13.893 6.79807 13.893 4.7084 13.893 2.73482C13.893 1.80608 13.5447 1.4578 12.616 1.4578C9.48148 1.4578 6.46307 1.4578 3.32857 1.4578C2.39983 1.4578 2.05155 1.80608 2.05155 2.73482C2.05155 5.75323 2.05155 8.77164 2.05155 11.7901C1.93546 11.9061 1.93546 12.0222 2.05155 12.1383Z" fill="white" stroke="white" stroke-width="0.20175"/>
<path id="Vector_2" d="M17.1433 15.97C17.1433 15.8539 17.1433 15.7378 17.1433 15.6217C17.1433 12.7194 17.1433 9.81706 17.1433 7.03084C17.1433 6.21819 16.795 5.86991 15.9823 5.75382C15.6341 5.75382 15.4019 5.52163 15.518 5.17335C15.518 4.82508 15.7501 4.70898 16.0984 4.70898C17.2593 4.70898 18.1881 5.63773 18.1881 6.91475C18.1881 8.54004 18.1881 10.0492 18.1881 11.6745C18.1881 13.532 18.1881 15.2734 18.1881 17.1309C18.1881 17.3631 18.1881 17.7114 17.8398 17.8275C17.6076 17.9436 17.3754 17.8275 17.1433 17.5953C16.4467 17.0148 15.6341 16.4343 14.9375 15.8539C14.8214 15.7378 14.5892 15.6217 14.4731 15.6217C12.1513 15.6217 9.82942 15.6217 7.62365 15.6217C6.34663 15.6217 4.95352 14.809 5.18571 12.8355C5.18571 12.4872 5.41789 12.3711 5.76617 12.3711C6.11445 12.3711 6.23054 12.6033 6.23054 12.8355C6.23054 12.9516 6.23054 13.1838 6.23054 13.2998C6.23054 14.1125 6.69491 14.5769 7.50756 14.5769C9.82942 14.5769 12.1513 14.5769 14.357 14.5769C14.9375 14.5769 15.2858 14.693 15.7501 15.0412C16.2145 15.2734 16.6789 15.6217 17.1433 15.97Z" fill="white" stroke="white" stroke-width="0.20175"/>
<path id="Vector_3" d="M7.97168 4.59171C6.92685 4.59171 5.88202 4.59171 4.83718 4.59171C4.37281 4.59171 4.14062 4.47562 4.14062 4.12734C4.14062 3.77906 4.37281 3.54688 4.83718 3.54688C6.92685 3.54688 9.01652 3.54688 11.1062 3.54688C11.5706 3.54688 11.9188 3.89515 11.8027 4.24343C11.6866 4.59171 11.4545 4.59171 11.1062 4.59171C10.0614 4.59171 9.01652 4.59171 7.97168 4.59171Z" fill="white" stroke="white" stroke-width="0.20175"/>
<path id="Vector_4" d="M6.81029 5.7546C7.50685 5.7546 8.2034 5.7546 8.89996 5.7546C9.36433 5.7546 9.59652 5.98679 9.59652 6.33507C9.59652 6.68334 9.36433 6.91553 8.89996 6.91553C7.50685 6.91553 6.11374 6.91553 4.83672 6.91553C4.37235 6.79944 4.14062 6.66201 4.14062 6.31373C4.14062 5.96545 4.37235 5.71484 4.83672 5.71484C5.63016 5.71484 6.22983 5.7546 6.81029 5.7546Z" fill="white" stroke="white" stroke-width="0.20175"/>
</g>
</svg>
